<?xml version="1.0" encoding="UTF-8" standalone="no"?>
<svg
   width="160"
   height="116.07018"
   viewBox="0 0 160 116.07018"
   version="1.1"
   id="svg6"
   sodipodi:docname="ollama-buddy-logo.svg"
   inkscape:version="1.4.3 (0d15f75042, 2025-12-25)"
   xmlns:inkscape="http://www.inkscape.org/namespaces/inkscape"
   xmlns:sodipodi="http://sodipodi.sourceforge.net/DTD/sodipodi-0.dtd"
   xmlns="http://www.w3.org/2000/svg"
   xmlns:svg="http://www.w3.org/2000/svg">
  <defs
     id="defs6" />
  <sodipodi:namedview
     id="namedview6"
     pagecolor="#ffffff"
     bordercolor="#000000"
     borderopacity="0.25"
     inkscape:showpageshadow="2"
     inkscape:pageopacity="0.0"
     inkscape:pagecheckerboard="0"
     inkscape:deskcolor="#d1d1d1"
     inkscape:zoom="2.5267579"
     inkscape:cx="56.990027"
     inkscape:cy="66.290482"
     inkscape:window-width="1884"
     inkscape:window-height="1019"
     inkscape:window-x="0"
     inkscape:window-y="0"
     inkscape:window-maximized="0"
     inkscape:current-layer="svg6" />
  <!-- Background -->
  <rect
     x="0"
     y="0"
     width="160"
     height="116.07018"
     rx="30"
     fill="#2d2d2d"
     id="rect1"
     style="stroke-width:0.851728" />
  <!-- Side brackets -->
  <rect
     style="fill:#ffffff;fill-opacity:1"
     id="rect6"
     width="25.724665"
     height="26.516193"
     x="67.46386"
     y="74.983383" />
  <path
     d="M 30,16.254154 H 15 v 80 h 15"
     stroke="#7b5294"
     stroke-width="8"
     fill="none"
     id="path1" />
  <path
     d="m 130,16.254154 h 15 v 80 h -15"
     stroke="#7b5294"
     stroke-width="8"
     fill="none"
     id="path2" />
  <!-- Smaller rounded ears (closer together) -->
  <path
     d="m 68,40.254154 q -2,-12 0,-20 4,-4 8,4 0,8 -3,16 z"
     fill="#eeeeee"
     id="path3" />
  <path
     d="m 92,40.254154 q 2,-12 0,-20 -4,-4 -8,4 0,8 3,16 z"
     fill="#eeeeee"
     id="path4" />
  <!-- Head -->
  <path
     d="m 65,45.467886 q 15,-16.600733 30,0 v 29.051278 q 0,24.9011 -15,24.9011 -15,0 -15,-24.9011 z"
     fill="#eeeeee"
     id="path5"
     style="stroke-width:0.911063" />
  <!-- Darker muzzle -->
  <ellipse
     cx="80"
     cy="68.25415"
     rx="12"
     ry="10"
     fill="#cccccc"
     id="ellipse5" />
  <!-- Eyes -->
  <circle
     cx="72"
     cy="62.254154"
     fill="#2d2d2d"
     id="circle5"
     r="3" />
  <circle
     cx="88"
     cy="62.254154"
     fill="#2d2d2d"
     id="circle6"
     r="3" />
  <!-- Nose -->
  <ellipse
     cx="80"
     cy="66.25415"
     rx="3"
     ry="2"
     fill="#2d2d2d"
     id="ellipse6" />
  <!-- Mouth -->
  <path
     d="m 74,74.254154 q 6,6 12,0"
     stroke="#2d2d2d"
     stroke-width="2"
     fill="none"
     stroke-linecap="round"
     id="path6" />
</svg>
