<svg width="400" height="400" viewBox="0 0 400 400" xmlns="http://www.w3.org/2000/svg">
  <rect width="400" height="400" fill="#121212" />

  <path d="M80 60 H50 C44 60 40 64 40 70 V330 C40 336 44 340 50 340 H80" stroke="#7e4db1" stroke-width="12" fill="none" stroke-linecap="round"/>
  <path d="M320 60 H350 C356 60 360 64 360 70 V330 C360 336 356 340 350 340 H320" stroke="#7e4db1" stroke-width="12" fill="none" stroke-linecap="round"/>

  <path d="M135 250 V340 H265 V250" fill="#FFFFFF" />

  <path d="M190 125 L200 110 L210 122" fill="#FFFFFF" stroke="#FFFFFF" stroke-width="2" stroke-linejoin="round" />

  <path d="M130 140 V300 C130 330 270 330 270 300 V140 L200 120 Z" fill="#FFFFFF" />
  
  <ellipse cx="165" cy="100" rx="18" ry="45" fill="#FFFFFF" />
  <ellipse cx="165" cy="105" rx="10" ry="30" fill="#C0C4C8" />
  
  <ellipse cx="235" cy="100" rx="18" ry="45" fill="#FFFFFF" />
  <ellipse cx="235" cy="105" rx="10" ry="30" fill="#C0C4C8" />

  <ellipse cx="200" cy="245" rx="60" ry="50" fill="#B0B5B9" />

  <circle cx="165" cy="220" r="14" fill="#1A1A1A" />
  <circle cx="235" cy="220" r="14" fill="#1A1A1A" />

  <ellipse cx="200" cy="245" rx="12" ry="9" fill="#1A1A1A" />

  <path d="M170 275 Q200 300 230 275" stroke="#1A1A1A" stroke-width="5" fill="none" stroke-linecap="round" />
</svg>